<?xml version="1.0" encoding="UTF-8" standalone="no"?>
<svg
   xmlns:dc="http://purl.org/dc/elements/1.1/"
   xmlns:cc="http://creativecommons.org/ns#"
   xmlns:rdf="http://www.w3.org/1999/02/22-rdf-syntax-ns#"
   xmlns:svg="http://www.w3.org/2000/svg"
   xmlns="http://www.w3.org/2000/svg"
   version="1.1"
   id="svg3453"
   viewBox="0 0 196 47.964462"
   height="47.964462"
   width="196">
  <defs
     id="defs3455" />
  <metadata
     id="metadata3458">
    <rdf:RDF>
      <cc:Work
         rdf:about="">
        <dc:format>image/svg+xml</dc:format>
        <dc:type
           rdf:resource="http://purl.org/dc/dcmitype/StillImage" />
        <dc:title></dc:title>
      </cc:Work>
    </rdf:RDF>
  </metadata>
  <g
     transform="translate(-1.8350598,-880.07493)"
     id="layer1">
    <g
       style="font-style:normal;font-variant:normal;font-weight:normal;font-stretch:normal;font-size:13.28608036px;line-height:100%;font-family:Ubuntu;-inkscape-font-specification:Ubuntu;letter-spacing:0px;word-spacing:0px;fill:#000000;fill-opacity:1;stroke:none;stroke-width:0.1;stroke-linecap:butt;stroke-linejoin:bevel;stroke-miterlimit:4;stroke-dasharray:none;stroke-dashoffset:0;stroke-opacity:1"
       id="text4225" />
    <path
       style="fill:none;stroke:#000000;stroke-width:0.2592603;stroke-miterlimit:4;stroke-dasharray:none;stroke-dashoffset:0"
       d="m 121.34979,890.54492 9.91671,0 c 4.04857,0 7.3079,2.71008 7.3079,6.07641 l 0,5.1204 c 0,3.36633 -3.25933,6.07641 -7.3079,6.07641 l -9.91671,0 c -4.04857,0 -7.3079,-2.71008 -7.3079,-6.07641 l 0,-5.1204 c 0,-3.36633 3.25933,-6.07641 7.3079,-6.07641 z"
       id="rect4175" />
    <path
       style="fill:#db0027;fill-opacity:1;stroke:#db0027;stroke-width:0.2592603;stroke-miterlimit:4;stroke-dasharray:none;stroke-dashoffset:0;stroke-opacity:1"
       d="m 118.20115,880.20453 16.21396,0 c 8.89609,0 16.05793,5.31176 16.05793,11.90977 l 0,14.13436 c 0,6.59801 -7.16184,11.90976 -16.05793,11.90976 l -16.21396,0 c -8.8961,0 -16.05794,-5.31175 -16.05794,-11.90976 l 0,-14.13436 c 0,-6.59801 7.16184,-11.90977 16.05794,-11.90977 z"
       id="rect4175-3" />
    <path
       style="fill:#ffffff;stroke:#ffffff;stroke-width:0.2592603;stroke-miterlimit:4;stroke-dasharray:none;stroke-dashoffset:0;stroke-opacity:1"
       d="m 121.34979,890.54492 9.91671,0 c 4.04857,0 7.3079,2.71008 7.3079,6.07641 l 0,5.1204 c 0,3.36633 -3.25933,6.07641 -7.3079,6.07641 l -9.91671,0 c -4.04857,0 -7.3079,-2.71008 -7.3079,-6.07641 l 0,-5.1204 c 0,-3.36633 3.25933,-6.07641 7.3079,-6.07641 z"
       id="rect4192" />
    <path
       id="path4194"
       d="m 132.30995,918.14774 4.08335,9.78707 c -12.91171,0 -11.90074,0.87604 -16.36581,-9.78707 z"
       style="fill:#db0027;fill-opacity:1;fill-rule:evenodd;stroke:#db0027;stroke-width:0.12963015px;stroke-linecap:butt;stroke-linejoin:miter;stroke-opacity:1" />
    <path
       d="m 159.14371,888.00791 q 0,0.6643 -0.14615,1.2356 -0.13286,0.5713 -0.49158,1.00974 -0.34544,0.42516 -0.94331,0.67759 -0.58459,0.23915 -1.47476,0.23915 -0.45172,0 -0.83702,-0.0797 -0.37201,-0.0664 -0.67759,-0.17272 -0.30558,-0.11958 -0.53144,-0.23915 -0.22587,-0.13286 -0.35873,-0.25244 l 0.50487,-1.02302 q 0.27901,0.19929 0.71745,0.42515 0.45173,0.21258 1.11603,0.21258 0.9566,0 1.39504,-0.4783 0.43844,-0.49159 0.43844,-1.67405 l 0,-6.12488 1.28875,0 0,6.24446 z"
       style="font-style:normal;font-variant:normal;font-weight:normal;font-stretch:normal;font-size:13.28608036px;line-height:100%;font-family:Ubuntu;-inkscape-font-specification:Ubuntu;letter-spacing:0px;word-spacing:0px;fill:#000000;fill-opacity:1;stroke:none;stroke-width:0.1;stroke-linecap:butt;stroke-linejoin:bevel;stroke-miterlimit:4;stroke-dasharray:none;stroke-dashoffset:0;stroke-opacity:1"
       id="path4514" />
    <path
       d="m 167.38108,887.51632 q 0,0.82374 -0.23915,1.48804 -0.23915,0.66431 -0.67759,1.14261 -0.42515,0.4783 -1.02303,0.74402 -0.59787,0.25243 -1.30203,0.25243 -0.70417,0 -1.30204,-0.25243 -0.59787,-0.26572 -1.03631,-0.74402 -0.42516,-0.4783 -0.66431,-1.14261 -0.23915,-0.6643 -0.23915,-1.48804 0,-0.81045 0.23915,-1.47475 0.23915,-0.67759 0.66431,-1.15589 0.43844,-0.4783 1.03631,-0.73074 0.59787,-0.26572 1.30204,-0.26572 0.70416,0 1.30203,0.26572 0.59788,0.25244 1.02303,0.73074 0.43844,0.4783 0.67759,1.15589 0.23915,0.6643 0.23915,1.47475 z m -1.28875,0 q 0,-1.16917 -0.53144,-1.84676 -0.51816,-0.69088 -1.42161,-0.69088 -0.90346,0 -1.4349,0.69088 -0.51816,0.67759 -0.51816,1.84676 0,1.16918 0.51816,1.86005 0.53144,0.67759 1.4349,0.67759 0.90345,0 1.42161,-0.67759 0.53144,-0.69087 0.53144,-1.86005 z"
       style="font-style:normal;font-variant:normal;font-weight:normal;font-stretch:normal;font-size:13.28608036px;line-height:100%;font-family:Ubuntu;-inkscape-font-specification:Ubuntu;letter-spacing:0px;word-spacing:0px;fill:#000000;fill-opacity:1;stroke:none;stroke-width:0.1;stroke-linecap:butt;stroke-linejoin:bevel;stroke-miterlimit:4;stroke-dasharray:none;stroke-dashoffset:0;stroke-opacity:1"
       id="path4516" />
    <path
       d="m 170.35509,884.36752 q 0.22586,-0.14615 0.67759,-0.30558 0.46501,-0.15943 1.06288,-0.15943 0.74402,0 1.31533,0.26572 0.58458,0.26572 0.98317,0.74402 0.39858,0.4783 0.59787,1.1426 0.21258,0.66431 0.21258,1.46147 0,0.83703 -0.25244,1.51462 -0.23915,0.6643 -0.69088,1.12931 -0.45172,0.46502 -1.08945,0.71745 -0.63774,0.25244 -1.4349,0.25244 -0.8636,0 -1.5279,-0.11958 -0.6643,-0.11957 -1.08946,-0.23915 l 0,-9.89813 1.23561,-0.21258 0,3.70682 z m 0,5.52701 q 0.186,0.0531 0.51815,0.10629 0.34544,0.0399 0.85031,0.0399 0.99646,0 1.59433,-0.65102 0.59788,-0.6643 0.59788,-1.87334 0,-0.53144 -0.10629,-0.99645 -0.10629,-0.46502 -0.34544,-0.79717 -0.23915,-0.34544 -0.62445,-0.53144 -0.37201,-0.19929 -0.90345,-0.19929 -0.50487,0 -0.93003,0.17272 -0.42515,0.17272 -0.65101,0.35872 l 0,4.37112 z"
       style="font-style:normal;font-variant:normal;font-weight:normal;font-stretch:normal;font-size:13.28608036px;line-height:100%;font-family:Ubuntu;-inkscape-font-specification:Ubuntu;letter-spacing:0px;word-spacing:0px;fill:#000000;fill-opacity:1;stroke:none;stroke-width:0.1;stroke-linecap:butt;stroke-linejoin:bevel;stroke-miterlimit:4;stroke-dasharray:none;stroke-dashoffset:0;stroke-opacity:1"
       id="path4518" />
    <path
       d="m 178.56381,890.08054 q 0.75731,0 1.11603,-0.1993 0.37201,-0.19929 0.37201,-0.63773 0,-0.45172 -0.35872,-0.71745 -0.35873,-0.26572 -1.18247,-0.59787 -0.39858,-0.15943 -0.77059,-0.31887 -0.35872,-0.17271 -0.62444,-0.39858 -0.26573,-0.22586 -0.42516,-0.54473 -0.15943,-0.31886 -0.15943,-0.78388 0,-0.91674 0.67759,-1.44818 0.67759,-0.54473 1.84676,-0.54473 0.2923,0 0.58459,0.0399 0.2923,0.0266 0.54473,0.0797 0.25244,0.0399 0.43844,0.093 0.19929,0.0531 0.30558,0.093 l -0.22586,1.06289 q -0.19929,-0.10629 -0.62445,-0.21258 -0.42515,-0.11957 -1.02303,-0.11957 -0.51815,0 -0.90345,0.21257 -0.3853,0.1993 -0.3853,0.63774 0,0.22586 0.0797,0.39858 0.093,0.17272 0.26572,0.31886 0.18601,0.13286 0.45173,0.25244 0.26572,0.11957 0.63773,0.25244 0.49159,0.186 0.87688,0.37201 0.3853,0.17271 0.65102,0.41186 0.27901,0.23915 0.42515,0.58459 0.14615,0.33215 0.14615,0.82374 0,0.9566 -0.71745,1.44818 -0.70416,0.49159 -2.01948,0.49159 -0.91674,0 -1.4349,-0.15944 -0.51815,-0.14614 -0.70416,-0.22586 l 0.22586,-1.06289 q 0.21258,0.0797 0.67759,0.23915 0.46502,0.15944 1.23561,0.15944 z"
       style="font-style:normal;font-variant:normal;font-weight:normal;font-stretch:normal;font-size:13.28608036px;line-height:100%;font-family:Ubuntu;-inkscape-font-specification:Ubuntu;letter-spacing:0px;word-spacing:0px;fill:#000000;fill-opacity:1;stroke:none;stroke-width:0.1;stroke-linecap:butt;stroke-linejoin:bevel;stroke-miterlimit:4;stroke-dasharray:none;stroke-dashoffset:0;stroke-opacity:1"
       id="path4520" />
    <path
       d="m 160.8709,904.25678 q -0.22586,-0.59787 -0.42515,-1.16917 -0.19929,-0.58459 -0.41187,-1.18246 l -4.17183,0 -0.83702,2.35163 -1.3419,0 q 0.53145,-1.46147 0.99646,-2.69707 0.46501,-1.24889 0.90345,-2.36492 0.45173,-1.11603 0.89017,-2.12578 0.43844,-1.02302 0.91674,-2.01948 l 1.18246,0 q 0.4783,0.99646 0.91674,2.01948 0.43844,1.00975 0.87688,2.12578 0.45173,1.11603 0.91674,2.36492 0.46501,1.2356 0.99646,2.69707 l -1.40833,0 z m -1.20903,-3.41452 q -0.42516,-1.15589 -0.85031,-2.23206 -0.41187,-1.08946 -0.8636,-2.08592 -0.46501,0.99646 -0.89016,2.08592 -0.41187,1.07617 -0.82374,2.23206 l 3.42781,0 z"
       style="font-style:normal;font-variant:normal;font-weight:normal;font-stretch:normal;font-size:13.28608036px;line-height:100%;font-family:Ubuntu;-inkscape-font-specification:Ubuntu;letter-spacing:0px;word-spacing:0px;fill:#000000;fill-opacity:1;stroke:none;stroke-width:0.1;stroke-linecap:butt;stroke-linejoin:bevel;stroke-miterlimit:4;stroke-dasharray:none;stroke-dashoffset:0;stroke-opacity:1"
       id="path4522" />
    <path
       d="m 165.9875,897.20187 q 0.15943,0 0.35872,0.0266 0.21258,0.0133 0.41187,0.0531 0.19929,0.0266 0.35872,0.0664 0.17272,0.0266 0.25244,0.0531 l -0.21258,1.07617 q -0.14615,-0.0532 -0.49158,-0.11958 -0.33216,-0.0797 -0.8636,-0.0797 -0.34544,0 -0.69088,0.0797 -0.33215,0.0664 -0.43844,0.093 l 0,5.80601 -1.2356,0 0,-6.61646 q 0.43844,-0.15944 1.08946,-0.2923 0.65101,-0.14615 1.46147,-0.14615 z"
       style="font-style:normal;font-variant:normal;font-weight:normal;font-stretch:normal;font-size:13.28608036px;line-height:100%;font-family:Ubuntu;-inkscape-font-specification:Ubuntu;letter-spacing:0px;word-spacing:0px;fill:#000000;fill-opacity:1;stroke:none;stroke-width:0.1;stroke-linecap:butt;stroke-linejoin:bevel;stroke-miterlimit:4;stroke-dasharray:none;stroke-dashoffset:0;stroke-opacity:1"
       id="path4524" />
    <path
       d="m 171.5772,904.41622 q -0.83702,0 -1.47476,-0.26573 -0.62444,-0.26572 -1.06288,-0.74402 -0.42516,-0.47829 -0.63773,-1.12931 -0.21258,-0.66431 -0.21258,-1.46147 0,-0.79717 0.22586,-1.46147 0.23915,-0.6643 0.66431,-1.1426 0.42515,-0.49159 1.03631,-0.75731 0.62445,-0.27901 1.38175,-0.27901 0.46501,0 0.93003,0.0797 0.46501,0.0797 0.89016,0.25243 l -0.279,1.04961 q -0.27901,-0.13287 -0.65102,-0.21258 -0.35872,-0.0797 -0.77059,-0.0797 -1.03632,0 -1.59433,0.65102 -0.54473,0.65102 -0.54473,1.89991 0,0.55801 0.11957,1.02303 0.13286,0.46501 0.39858,0.79716 0.27901,0.33215 0.70417,0.51816 0.42515,0.17272 1.03631,0.17272 0.49159,0 0.89017,-0.093 0.39858,-0.093 0.62444,-0.1993 l 0.17272,1.03632 q -0.10629,0.0664 -0.30558,0.13286 -0.19929,0.0531 -0.45172,0.093 -0.25244,0.0531 -0.54473,0.0797 -0.27901,0.0399 -0.54473,0.0399 z"
       style="font-style:normal;font-variant:normal;font-weight:normal;font-stretch:normal;font-size:13.28608036px;line-height:100%;font-family:Ubuntu;-inkscape-font-specification:Ubuntu;letter-spacing:0px;word-spacing:0px;fill:#000000;fill-opacity:1;stroke:none;stroke-width:0.1;stroke-linecap:butt;stroke-linejoin:bevel;stroke-miterlimit:4;stroke-dasharray:none;stroke-dashoffset:0;stroke-opacity:1"
       id="path4526" />
    <path
       d="m 174.7505,904.25678 0,-10.09742 1.2356,-0.21257 0,3.53409 q 0.34544,-0.13286 0.73074,-0.19929 0.39858,-0.0797 0.78388,-0.0797 0.82373,0 1.36846,0.23915 0.54473,0.22587 0.8636,0.65102 0.33215,0.41187 0.46501,0.99646 0.13286,0.58459 0.13286,1.28875 l 0,3.87953 -1.2356,0 0,-3.61381 q 0,-0.63773 -0.093,-1.08946 -0.0797,-0.45173 -0.279,-0.73073 -0.1993,-0.27901 -0.53145,-0.39859 -0.33215,-0.13286 -0.82374,-0.13286 -0.19929,0 -0.41186,0.0266 -0.21258,0.0266 -0.41187,0.0664 -0.18601,0.0266 -0.34544,0.0664 -0.14615,0.0399 -0.21258,0.0664 l 0,5.73958 -1.2356,0 z"
       style="font-style:normal;font-variant:normal;font-weight:normal;font-stretch:normal;font-size:13.28608036px;line-height:100%;font-family:Ubuntu;-inkscape-font-specification:Ubuntu;letter-spacing:0px;word-spacing:0px;fill:#000000;fill-opacity:1;stroke:none;stroke-width:0.1;stroke-linecap:butt;stroke-linejoin:bevel;stroke-miterlimit:4;stroke-dasharray:none;stroke-dashoffset:0;stroke-opacity:1"
       id="path4528" />
    <path
       d="m 183.56332,904.25678 -1.23561,0 0,-6.90876 1.23561,0 0,6.90876 z m -0.62445,-8.15765 q -0.33215,0 -0.5713,-0.21258 -0.22586,-0.22586 -0.22586,-0.59787 0,-0.37201 0.22586,-0.58459 0.23915,-0.22586 0.5713,-0.22586 0.33216,0 0.55802,0.22586 0.23915,0.21258 0.23915,0.58459 0,0.37201 -0.23915,0.59787 -0.22586,0.21258 -0.55802,0.21258 z"
       style="font-style:normal;font-variant:normal;font-weight:normal;font-stretch:normal;font-size:13.28608036px;line-height:100%;font-family:Ubuntu;-inkscape-font-specification:Ubuntu;letter-spacing:0px;word-spacing:0px;fill:#000000;fill-opacity:1;stroke:none;stroke-width:0.1;stroke-linecap:butt;stroke-linejoin:bevel;stroke-miterlimit:4;stroke-dasharray:none;stroke-dashoffset:0;stroke-opacity:1"
       id="path4530" />
    <path
       d="m 191.09528,897.34802 q -0.51816,1.93977 -1.22232,3.7201 -0.69087,1.78034 -1.34189,3.18866 l -1.11603,0 q -0.65102,-1.40832 -1.35518,-3.18866 -0.69088,-1.78033 -1.20904,-3.7201 l 1.32861,0 q 0.15943,0.65102 0.37201,1.39504 0.22587,0.73073 0.46501,1.46147 0.25244,0.71745 0.50488,1.39504 0.25243,0.67759 0.47829,1.20903 0.22587,-0.53144 0.4783,-1.20903 0.25244,-0.67759 0.49159,-1.39504 0.25243,-0.73074 0.46501,-1.46147 0.22586,-0.74402 0.3853,-1.39504 l 1.27546,0 z"
       style="font-style:normal;font-variant:normal;font-weight:normal;font-stretch:normal;font-size:13.28608036px;line-height:100%;font-family:Ubuntu;-inkscape-font-specification:Ubuntu;letter-spacing:0px;word-spacing:0px;fill:#000000;fill-opacity:1;stroke:none;stroke-width:0.1;stroke-linecap:butt;stroke-linejoin:bevel;stroke-miterlimit:4;stroke-dasharray:none;stroke-dashoffset:0;stroke-opacity:1"
       id="path4532" />
    <path
       d="m 191.80318,900.81569 q 0,-0.91674 0.26572,-1.59433 0.26572,-0.69088 0.70417,-1.1426 0.43844,-0.45173 1.00974,-0.67759 0.5713,-0.22587 1.16917,-0.22587 1.39504,0 2.13906,0.87688 0.74402,0.8636 0.74402,2.64393 0,0.0797 0,0.21258 0,0.11958 -0.0133,0.22586 l -4.72985,0 q 0.0797,1.07618 0.62445,1.63419 0.54473,0.55802 1.70062,0.55802 0.65101,0 1.08945,-0.10629 0.45173,-0.11958 0.67759,-0.22586 l 0.17272,1.03631 q -0.22586,0.11957 -0.79716,0.25244 -0.55802,0.13286 -1.27547,0.13286 -0.90345,0 -1.56775,-0.26573 -0.65102,-0.279 -1.07618,-0.7573 -0.42515,-0.4783 -0.63773,-1.12932 -0.19929,-0.6643 -0.19929,-1.44818 z m 4.74313,-0.67759 q 0.0133,-0.83702 -0.42515,-1.36847 -0.42516,-0.54473 -1.18246,-0.54473 -0.42516,0 -0.75731,0.17272 -0.31887,0.15944 -0.54473,0.42516 -0.22586,0.26572 -0.35872,0.61116 -0.11958,0.34543 -0.15944,0.70416 l 3.42781,0 z"
       style="font-style:normal;font-variant:normal;font-weight:normal;font-stretch:normal;font-size:13.28608036px;line-height:100%;font-family:Ubuntu;-inkscape-font-specification:Ubuntu;letter-spacing:0px;word-spacing:0px;fill:#000000;fill-opacity:1;stroke:none;stroke-width:0.1;stroke-linecap:butt;stroke-linejoin:bevel;stroke-miterlimit:4;stroke-dasharray:none;stroke-dashoffset:0;stroke-opacity:1"
       id="path4534" />
    <path
       d="m 157.16408,908.24261 q 1.93977,0 2.97609,0.74402 1.0496,0.73073 1.0496,2.1922 0,0.79717 -0.2923,1.36847 -0.279,0.55801 -0.82373,0.91674 -0.53145,0.34544 -1.30204,0.50487 -0.77059,0.15943 -1.74048,0.15943 l -1.02302,0 0,3.41452 -1.28875,0 0,-9.07439 q 0.54473,-0.13286 1.20903,-0.17272 0.67759,-0.0531 1.2356,-0.0531 z m 0.10629,1.12931 q -0.82373,0 -1.26217,0.0399 l 0,3.61382 0.96988,0 q 0.6643,0 1.19575,-0.0797 0.53144,-0.093 0.89016,-0.29229 0.37201,-0.21258 0.57131,-0.57131 0.19929,-0.35872 0.19929,-0.91673 0,-0.53145 -0.21258,-0.87689 -0.19929,-0.34543 -0.55802,-0.54473 -0.34543,-0.21257 -0.81045,-0.29229 -0.46501,-0.0797 -0.98317,-0.0797 z"
       style="font-style:normal;font-variant:normal;font-weight:normal;font-stretch:normal;font-size:13.28608036px;line-height:100%;font-family:Ubuntu;-inkscape-font-specification:Ubuntu;letter-spacing:0px;word-spacing:0px;fill:#000000;fill-opacity:1;stroke:none;stroke-width:0.1;stroke-linecap:butt;stroke-linejoin:bevel;stroke-miterlimit:4;stroke-dasharray:none;stroke-dashoffset:0;stroke-opacity:1"
       id="path4536" />
    <path
       d="m 164.78884,916.6527 q 0.43844,0 0.77059,-0.0133 0.34544,-0.0266 0.57131,-0.0797 l 0,-2.05934 q -0.13286,-0.0664 -0.43844,-0.10629 -0.2923,-0.0531 -0.71745,-0.0531 -0.27901,0 -0.59788,0.0399 -0.30558,0.0399 -0.5713,0.17272 -0.25243,0.11957 -0.42515,0.34543 -0.17272,0.21258 -0.17272,0.57131 0,0.6643 0.42515,0.93002 0.42516,0.25244 1.15589,0.25244 z m -0.10629,-6.19132 q 0.74402,0 1.24889,0.19929 0.51816,0.18601 0.82374,0.54473 0.31887,0.34544 0.45173,0.83703 0.13286,0.4783 0.13286,1.06288 l 0,4.31798 q -0.15943,0.0266 -0.45173,0.0797 -0.27901,0.0399 -0.63773,0.0797 -0.35872,0.0399 -0.78388,0.0664 -0.41187,0.0399 -0.82374,0.0399 -0.58458,0 -1.07617,-0.11957 -0.49158,-0.11958 -0.85031,-0.37201 -0.35872,-0.26573 -0.55801,-0.69088 -0.19929,-0.42515 -0.19929,-1.02303 0,-0.5713 0.22586,-0.98317 0.23915,-0.41187 0.63773,-0.6643 0.39858,-0.25244 0.93003,-0.37201 0.53144,-0.11958 1.11603,-0.11958 0.186,0 0.38529,0.0266 0.1993,0.0133 0.37201,0.0531 0.18601,0.0266 0.31887,0.0531 0.13286,0.0266 0.18601,0.0399 l 0,-0.34544 q 0,-0.30558 -0.0664,-0.59787 -0.0664,-0.30558 -0.23915,-0.53144 -0.17272,-0.23915 -0.4783,-0.37201 -0.2923,-0.14615 -0.7706,-0.14615 -0.61116,0 -1.07617,0.093 -0.45172,0.0797 -0.67759,0.17272 l -0.14615,-1.02303 q 0.23915,-0.10629 0.79717,-0.19929 0.55802,-0.10629 1.20903,-0.10629 z"
       style="font-style:normal;font-variant:normal;font-weight:normal;font-stretch:normal;font-size:13.28608036px;line-height:100%;font-family:Ubuntu;-inkscape-font-specification:Ubuntu;letter-spacing:0px;word-spacing:0px;fill:#000000;fill-opacity:1;stroke:none;stroke-width:0.1;stroke-linecap:butt;stroke-linejoin:bevel;stroke-miterlimit:4;stroke-dasharray:none;stroke-dashoffset:0;stroke-opacity:1"
       id="path4538" />
    <path
       d="m 171.9299,910.48796 q 0.15944,0 0.35873,0.0266 0.21257,0.0133 0.41187,0.0531 0.19929,0.0266 0.35872,0.0664 0.17272,0.0266 0.25243,0.0531 l -0.21257,1.07617 q -0.14615,-0.0531 -0.49159,-0.11958 -0.33215,-0.0797 -0.86359,-0.0797 -0.34544,0 -0.69088,0.0797 -0.33215,0.0664 -0.43844,0.093 l 0,5.80601 -1.2356,0 0,-6.61646 q 0.43844,-0.15944 1.08945,-0.2923 0.65102,-0.14614 1.46147,-0.14614 z"
       style="font-style:normal;font-variant:normal;font-weight:normal;font-stretch:normal;font-size:13.28608036px;line-height:100%;font-family:Ubuntu;-inkscape-font-specification:Ubuntu;letter-spacing:0px;word-spacing:0px;fill:#000000;fill-opacity:1;stroke:none;stroke-width:0.1;stroke-linecap:butt;stroke-linejoin:bevel;stroke-miterlimit:4;stroke-dasharray:none;stroke-dashoffset:0;stroke-opacity:1"
       id="path4540" />
    <path
       d="m 176.12457,916.6527 q 0.7573,0 1.11603,-0.19929 0.37201,-0.1993 0.37201,-0.63774 0,-0.45172 -0.35873,-0.71744 -0.35872,-0.26573 -1.18246,-0.59788 -0.39858,-0.15943 -0.77059,-0.31886 -0.35872,-0.17272 -0.62445,-0.39859 -0.26572,-0.22586 -0.42515,-0.54473 -0.15943,-0.31886 -0.15943,-0.78387 0,-0.91674 0.67759,-1.44819 0.67759,-0.54473 1.84676,-0.54473 0.2923,0 0.58459,0.0399 0.29229,0.0266 0.54473,0.0797 0.25243,0.0399 0.43844,0.093 0.19929,0.0531 0.30558,0.093 l -0.22586,1.06289 q -0.19929,-0.10629 -0.62445,-0.21258 -0.42515,-0.11957 -1.02303,-0.11957 -0.51815,0 -0.90345,0.21257 -0.3853,0.1993 -0.3853,0.63774 0,0.22586 0.0797,0.39858 0.093,0.17272 0.26572,0.31886 0.18601,0.13287 0.45173,0.25244 0.26572,0.11958 0.63773,0.25244 0.49158,0.186 0.87688,0.37201 0.3853,0.17272 0.65102,0.41186 0.27901,0.23915 0.42515,0.58459 0.14615,0.33215 0.14615,0.82374 0,0.9566 -0.71745,1.44818 -0.70416,0.49159 -2.01948,0.49159 -0.91674,0 -1.4349,-0.15944 -0.51816,-0.14614 -0.70416,-0.22586 l 0.22586,-1.06289 q 0.21258,0.0797 0.67759,0.23915 0.46501,0.15944 1.23561,0.15944 z"
       style="font-style:normal;font-variant:normal;font-weight:normal;font-stretch:normal;font-size:13.28608036px;line-height:100%;font-family:Ubuntu;-inkscape-font-specification:Ubuntu;letter-spacing:0px;word-spacing:0px;fill:#000000;fill-opacity:1;stroke:none;stroke-width:0.1;stroke-linecap:butt;stroke-linejoin:bevel;stroke-miterlimit:4;stroke-dasharray:none;stroke-dashoffset:0;stroke-opacity:1"
       id="path4542" />
    <path
       d="m 180.04811,914.10177 q 0,-0.91674 0.26572,-1.59433 0.26572,-0.69088 0.70417,-1.1426 0.43844,-0.45173 1.00974,-0.67759 0.5713,-0.22587 1.16917,-0.22587 1.39504,0 2.13906,0.87688 0.74402,0.8636 0.74402,2.64393 0,0.0797 0,0.21258 0,0.11958 -0.0133,0.22586 l -4.72985,0 q 0.0797,1.07618 0.62445,1.63419 0.54473,0.55802 1.70062,0.55802 0.65101,0 1.08945,-0.10629 0.45173,-0.11958 0.67759,-0.22586 l 0.17272,1.03631 q -0.22586,0.11958 -0.79716,0.25244 -0.55802,0.13286 -1.27547,0.13286 -0.90345,0 -1.56775,-0.26572 -0.65102,-0.27901 -1.07618,-0.75731 -0.42515,-0.4783 -0.63773,-1.12932 -0.19929,-0.6643 -0.19929,-1.44818 z m 4.74313,-0.67759 q 0.0133,-0.83702 -0.42515,-1.36847 -0.42516,-0.54473 -1.18246,-0.54473 -0.42516,0 -0.75731,0.17272 -0.31887,0.15944 -0.54473,0.42516 -0.22586,0.26572 -0.35872,0.61116 -0.11958,0.34543 -0.15944,0.70416 l 3.42781,0 z"
       style="font-style:normal;font-variant:normal;font-weight:normal;font-stretch:normal;font-size:13.28608036px;line-height:100%;font-family:Ubuntu;-inkscape-font-specification:Ubuntu;letter-spacing:0px;word-spacing:0px;fill:#000000;fill-opacity:1;stroke:none;stroke-width:0.1;stroke-linecap:butt;stroke-linejoin:bevel;stroke-miterlimit:4;stroke-dasharray:none;stroke-dashoffset:0;stroke-opacity:1"
       id="path4544" />
    <path
       d="m 190.40586,910.48796 q 0.15943,0 0.35872,0.0266 0.21258,0.0133 0.41187,0.0531 0.19929,0.0266 0.35873,0.0664 0.17272,0.0266 0.25243,0.0531 l -0.21258,1.07617 q -0.14614,-0.0531 -0.49158,-0.11958 -0.33215,-0.0797 -0.8636,-0.0797 -0.34543,0 -0.69087,0.0797 -0.33215,0.0664 -0.43844,0.093 l 0,5.80601 -1.23561,0 0,-6.61646 q 0.43844,-0.15944 1.08946,-0.2923 0.65102,-0.14614 1.46147,-0.14614 z"
       style="font-style:normal;font-variant:normal;font-weight:normal;font-stretch:normal;font-size:13.28608036px;line-height:100%;font-family:Ubuntu;-inkscape-font-specification:Ubuntu;letter-spacing:0px;word-spacing:0px;fill:#000000;fill-opacity:1;stroke:none;stroke-width:0.1;stroke-linecap:butt;stroke-linejoin:bevel;stroke-miterlimit:4;stroke-dasharray:none;stroke-dashoffset:0;stroke-opacity:1"
       id="path4546" />
    <path
       id="path4180"
       d="m 14.014588,917.50542 -12.1795282,0 0,-34.84038 c 8.2342992,-3.02225 23.2414422,-3.12174 28.1169272,0.61013 9.588183,-5.58357 27.905762,-2.46358 27.479431,10.36769 l 0,23.86256 -12.280184,0 0,-20.77573 c 0.110563,-3.28256 -1.612998,-5.35595 -5.771017,-5.8244 -1.400942,-0.0807 -2.470923,0.24517 -3.666578,0.82869 l 0,25.77144 -12.203716,0 0,-21.51389 c -0.08121,-2.89854 -2.259583,-4.61197 -5.403306,-4.90406 -1.409276,-0.0782 -2.786469,0.0646 -4.068862,0.67617 z"
       style="fill:#000000;fill-opacity:1;fill-rule:evenodd;stroke:none;stroke-width:0.1;stroke-linecap:butt;stroke-linejoin:miter;stroke-miterlimit:4;stroke-dasharray:none;stroke-opacity:1" />
    <path
       id="path4182"
       d="m 68.537271,927.96699 4.479246,-10.4348 -15.532672,-36.34356 12.533385,-0.0183 9.298753,21.71619 7.083459,-16.69832 c 1.925813,-3.83744 2.52872,-5.04363 8.730852,-5.07719 l 6.026186,0.0475 -17.841307,41.66136 c -2.201002,4.45556 -3.775547,5.21953 -7.686946,5.21953 z"
       style="fill:#000000;fill-opacity:1;fill-rule:evenodd;stroke:none;stroke-width:0.2;stroke-linecap:butt;stroke-linejoin:miter;stroke-miterlimit:4;stroke-dasharray:none;stroke-opacity:1" />
  </g>
</svg>
